<?xml version="1.0" encoding="utf-8"?>
<!-- Generator: Adobe Illustrator 22.0.1, SVG Export Plug-In . SVG Version: 6.00 Build 0)  -->
<svg version="1.1" id="Layer_1" xmlns="http://www.w3.org/2000/svg" xmlns:xlink="http://www.w3.org/1999/xlink" x="0px" y="0px"
	 viewBox="0 0 292.5 50.5" style="enable-background:new 0 0 292.5 50.5;" xml:space="preserve">
<style type="text/css">
	.st0{clip-path:url(#SVGID_2_);fill-rule:evenodd;clip-rule:evenodd;fill:#F28E5C;}
	.st1{fill-rule:evenodd;clip-rule:evenodd;fill:#F28E5C;}
	.st2{clip-path:url(#SVGID_4_);fill-rule:evenodd;clip-rule:evenodd;fill:#F28E5C;}
	.st3{fill-rule:evenodd;clip-rule:evenodd;fill:#C75C28;}
	.st4{fill-rule:evenodd;clip-rule:evenodd;fill:#FFFFFF;}
	.st5{clip-path:url(#SVGID_6_);fill-rule:evenodd;clip-rule:evenodd;fill:#F28E5C;}
	.st6{clip-path:url(#SVGID_8_);fill-rule:evenodd;clip-rule:evenodd;fill:#F28E5C;}
</style>
<g>
	<g>
		<g>
			<defs>
				<rect id="SVGID_1_" x="170.5" y="14.9" width="25.8" height="24.8"/>
			</defs>
			<clipPath id="SVGID_2_">
				<use xlink:href="#SVGID_1_"  style="overflow:visible;"/>
			</clipPath>
			<path class="st0" d="M179.1,14.9v12.8c0,0.8,0.1,1.4,0.2,2.1c0.1,0.6,0.3,1.2,0.6,1.7c0.3,0.5,0.8,0.8,1.3,1.1
				c0.6,0.3,1.3,0.4,2.2,0.4c0.9,0,1.6-0.1,2.2-0.4c0.6-0.3,1-0.6,1.3-1.1c0.3-0.5,0.5-1,0.6-1.7c0.1-0.6,0.2-1.3,0.2-2.1V14.9h8.6
				v14.5c0,2-0.3,3.6-1,4.9c-0.7,1.3-1.6,2.4-2.7,3.2c-1.2,0.8-2.5,1.4-4.1,1.7c-1.6,0.3-3.3,0.5-5.1,0.5c-1.8,0-3.5-0.2-5.1-0.5
				c-1.6-0.3-2.9-0.9-4.1-1.7c-1.2-0.8-2.1-1.9-2.7-3.2c-0.7-1.3-1-3-1-4.9V14.9H179.1L179.1,14.9z"/>
		</g>
		<path class="st1" d="M219.2,36.2L219.2,36.2c-0.9,1.2-1.9,2.1-3.3,2.6c-1.4,0.6-2.7,0.8-4.2,0.8c-1.8,0-3.4-0.3-4.9-1
			c-1.5-0.7-2.8-1.6-3.9-2.8c-1.1-1.2-1.9-2.5-2.5-4.1c-0.6-1.6-0.9-3.2-0.9-4.9c0-1.7,0.3-3.3,0.9-4.9c0.6-1.5,1.4-2.9,2.5-4.1
			c1.1-1.2,2.3-2.1,3.8-2.8c1.5-0.7,3.1-1,4.9-1c1.4,0,2.8,0.3,4.1,0.8c1.3,0.5,2.5,1.3,3.4,2.4V0h8.6v39h-8.6L219.2,36.2
			L219.2,36.2z M214.1,21.3c-0.9,0-1.6,0.1-2.3,0.4c-0.7,0.3-1.2,0.7-1.7,1.2c-0.5,0.5-0.8,1.1-1.1,1.7c-0.3,0.7-0.4,1.4-0.4,2.1
			c0,1.5,0.5,2.8,1.4,3.8c1,1,2.3,1.5,4.1,1.5c1.7,0,3.1-0.5,4.1-1.5c1-1,1.4-2.3,1.4-3.8c0-0.8-0.1-1.5-0.4-2.1
			c-0.2-0.6-0.6-1.2-1.1-1.7c-0.5-0.5-1-0.9-1.7-1.2C215.8,21.4,215,21.3,214.1,21.3"/>
		<path class="st1" d="M249.7,36.2L249.7,36.2c-0.9,1.2-1.9,2.1-3.3,2.6c-1.4,0.6-2.7,0.8-4.2,0.8c-1.8,0-3.4-0.3-4.9-1
			c-1.5-0.7-2.8-1.6-3.9-2.8c-1.1-1.2-1.9-2.5-2.5-4.1c-0.6-1.6-0.9-3.2-0.9-4.9c0-1.7,0.3-3.3,0.9-4.9c0.6-1.5,1.4-2.9,2.5-4.1
			c1.1-1.2,2.3-2.1,3.8-2.8c1.5-0.7,3.1-1,4.9-1c1.4,0,2.8,0.3,4.1,0.8c1.3,0.5,2.5,1.3,3.4,2.4V0h8.6v39h-8.6V36.2z M244.8,21.3
			c-0.9,0-1.6,0.1-2.3,0.4c-0.7,0.3-1.2,0.7-1.7,1.2c-0.5,0.5-0.8,1.1-1.1,1.7c-0.3,0.7-0.4,1.4-0.4,2.1c0,1.5,0.5,2.8,1.4,3.8
			c1,1,2.3,1.5,4.1,1.5c1.7,0,3.1-0.5,4.1-1.5c1-1,1.4-2.3,1.4-3.8c0-0.8-0.1-1.5-0.4-2.1c-0.2-0.6-0.6-1.2-1.1-1.7
			c-0.5-0.5-1-0.9-1.7-1.2C246.4,21.4,245.6,21.3,244.8,21.3"/>
		<g>
			<defs>
				<rect id="SVGID_3_" x="260.2" y="14.3" width="32.4" height="36.2"/>
			</defs>
			<clipPath id="SVGID_4_">
				<use xlink:href="#SVGID_3_"  style="overflow:visible;"/>
			</clipPath>
			<polygon class="st2" points="282.8,14.3 276.5,26.7 270,14.3 260.2,14.3 271.8,35.2 263.6,50.5 273.2,50.5 292.5,14.3 			"/>
		</g>
		<path class="st1" d="M139.5,0.3h8.6V17c0.9-1.1,2.1-1.9,3.4-2.4c2-0.8,4.7-0.6,4.7-0.6s2.3,0,4.3,0.8s3.1,1.9,4.2,3.2
			c1,1.3,1.7,2.6,2.2,4.1c0.5,1.6,0.8,3.2,0.8,5c0,1.7-0.3,3.4-0.9,4.9c-0.6,1.5-1.4,2.9-2.5,4.1c-1.1,1.2-2.3,2.1-3.8,2.8
			c-1.5,0.7-3.1,1-4.9,1c-1.4,0-3.3-0.3-4.7-0.8c-1.3-0.6-3.2-2.6-3.2-2.6h-0.1v2.3l-8,0V0.3z M157.1,30.5L157.1,30.5
			c-1,1.1-2.3,1.6-4.1,1.6c-1.7,0-3.1-0.5-4.1-1.5c-0.7-0.8-1.2-1.7-1.3-2.7c-0.1-0.4-0.2-0.7-0.2-1.1c0-0.8,0.1-1.4,0.4-2.1
			c0.2-0.6,0.7-1.3,1.2-1.8c0.5-0.5,1-0.9,1.7-1.2c0.7-0.3,1.4-0.4,2.3-0.4c2,0,3.1,0.8,3.1,0.8s1.4,0.8,2,2.6
			c0.2,0.7,0.4,1.4,0.4,2.1C158.5,28.2,158.1,29.5,157.1,30.5"/>
	</g>
	<path class="st3" d="M0,0.3h8.6v17.2c0.9-1.1,2-1.8,3.3-2.4c1.3-0.5,2.7-0.8,4.1-0.8c1.8,0,3.4,0.3,4.9,1c1.5,0.7,2.7,1.6,3.8,2.8
		c1,1.2,1.9,2.5,2.5,4.1c0.6,1.5,0.9,3.2,0.9,4.9c0,1.7-0.3,3.4-0.9,4.9c-0.6,1.5-1.4,2.9-2.5,4.1c-1.1,1.2-2.3,2.1-3.8,2.8
		c-1.5,0.7-3.1,1-4.9,1c-1.4,0-2.8-0.3-4.1-0.8c-1.3-0.6-2.4-1.4-3.2-2.6H8.6v2.9H0V0.3z M13.7,21.5c-0.9,0-1.6,0.1-2.3,0.4
		c-0.7,0.3-1.2,0.7-1.7,1.2c-0.5,0.5-0.8,1.1-1.1,1.7c-0.3,0.7-0.4,1.4-0.4,2.1c0,1.5,0.5,2.8,1.4,3.8c1,1,2.3,1.5,4.1,1.5
		c1.7,0,3.1-0.5,4.1-1.5c1-1,1.4-2.3,1.4-3.8c0-0.8-0.1-1.5-0.4-2.1c-0.2-0.6-0.6-1.2-1.1-1.7c-0.5-0.5-1-0.9-1.7-1.2
		C15.4,21.7,14.6,21.5,13.7,21.5 M44.3,14.1c1.9,0,3.8,0.3,5.5,0.8c1.7,0.6,3.3,1.4,4.6,2.5c1.3,1.1,2.4,2.4,3.2,4
		c0.8,1.6,1.2,3.4,1.2,5.5c0,2-0.4,3.8-1.2,5.4c-0.8,1.6-1.8,2.9-3.2,4c-1.3,1.1-2.9,1.9-4.6,2.5c-1.7,0.6-3.6,0.8-5.5,0.8
		c-1.9,0-3.8-0.3-5.5-0.8c-1.7-0.6-3.3-1.4-4.6-2.5c-1.3-1.1-2.4-2.4-3.2-4c-0.8-1.6-1.2-3.4-1.2-5.5c0-2.1,0.4-3.9,1.2-5.5
		c0.8-1.6,1.8-2.9,3.2-4c1.3-1.1,2.9-1.9,4.6-2.5C40.5,14.4,42.3,14.1,44.3,14.1 M44.3,21.5c-0.9,0-1.6,0.1-2.3,0.4
		c-0.7,0.3-1.2,0.7-1.7,1.2c-0.5,0.5-0.8,1.1-1.1,1.7c-0.3,0.7-0.4,1.4-0.4,2.1c0,1.5,0.5,2.8,1.4,3.8c1,1,2.3,1.5,4.1,1.5
		c1.7,0,3.1-0.5,4.1-1.5c1-1,1.4-2.3,1.4-3.8c0-0.8-0.1-1.5-0.4-2.1c-0.2-0.6-0.6-1.2-1.1-1.7c-0.5-0.5-1-0.9-1.7-1.2
		C45.9,21.7,45.1,21.5,44.3,21.5 M69.4,18.6L69.4,18.6c0.9-1.4,2-2.4,3.4-3.1c1.4-0.6,2.9-0.9,4.7-0.9h1.7v7.7
		c-0.6-0.3-1.2-0.5-1.8-0.6c-0.6-0.1-1.3-0.1-1.9-0.1c-1.2,0-2.2,0.2-3,0.5c-0.8,0.4-1.4,0.8-1.9,1.4c-0.4,0.6-0.8,1.3-0.9,2.2
		c-0.2,0.8-0.3,1.7-0.3,2.7v10.3h-8V14.6h8L69.4,18.6L69.4,18.6z M99.3,36.4L99.3,36.4c-0.9,1.2-1.9,2.1-3.3,2.6
		c-1.4,0.6-2.7,0.8-4.2,0.8c-1.8,0-3.4-0.3-4.9-1c-1.5-0.7-2.8-1.6-3.9-2.8c-1.1-1.2-1.9-2.5-2.5-4.1c-0.6-1.6-0.9-3.2-0.9-4.9
		c0-1.7,0.3-3.3,0.9-4.9c0.6-1.5,1.4-2.9,2.5-4.1c1.1-1.2,2.3-2.1,3.8-2.8c1.5-0.7,3.1-1,4.9-1c1.4,0,2.8,0.3,4.1,0.8
		c1.3,0.5,2.5,1.3,3.4,2.4V0.3h8.6v39h-8.6L99.3,36.4L99.3,36.4z M94.2,21.5c-0.9,0-1.6,0.1-2.3,0.4c-0.7,0.3-1.2,0.7-1.7,1.2
		c-0.5,0.5-0.8,1.1-1.1,1.7c-0.3,0.7-0.4,1.4-0.4,2.1c0,1.5,0.5,2.8,1.4,3.8c1,1,2.3,1.5,4.1,1.5c1.8,0,3.1-0.5,4.1-1.5
		c1-1,1.4-2.3,1.4-3.8c0-0.8-0.1-1.5-0.4-2.1c-0.2-0.6-0.6-1.2-1.1-1.7c-0.5-0.5-1-0.9-1.7-1.2C95.8,21.7,95,21.5,94.2,21.5
		 M137.2,28.4H119c0,1.7,0.4,3.1,1.3,4c0.9,0.9,2.2,1.4,4,1.4c0.9,0,1.7-0.2,2.4-0.5c0.7-0.3,1.2-0.9,1.7-2h8.2
		c-0.3,1.7-0.9,2.9-1.7,3.9c-0.8,1-1.8,1.9-2.9,2.6c-1.1,0.7-2.4,1.2-3.6,1.5c-1.3,0.3-2.7,0.5-4,0.5c-2,0-3.9-0.3-5.6-0.8
		c-1.7-0.6-3.2-1.4-4.4-2.5c-1.2-1.1-2.2-2.4-2.9-4c-0.7-1.6-1.1-3.4-1.1-5.5c0-2,0.3-3.8,1-5.4c0.7-1.6,1.6-2.9,2.7-4
		c1.2-1.1,2.6-1.9,4.2-2.5c1.6-0.6,3.4-0.9,5.4-0.9c2.1,0,4,0.3,5.6,0.9c1.6,0.6,3,1.5,4.1,2.7c1.1,1.2,2,2.6,2.6,4.2
		c0.6,1.6,0.9,3.5,1.2,5.6V28.4z M129,23.2c-0.3-1.3-1-2.4-2.2-3.1c-0.8-0.5-1.8-0.7-2.8-0.7c-1.2,0-2.2,0.4-3.1,1
		c-0.9,0.6-1.5,1.6-1.8,2.8L129,23.2L129,23.2z M151.5,14.6c-0.9,0.3-2.5,1.3-3.4,2.4v-2.4h-8.6v24.1h8v-12c0-0.8,0.1-1.5,0.4-2.1
		c0.2-0.6,0.6-1.2,1.1-1.7c0.5-0.5,1.1-0.9,1.8-1.2c0.7-0.3,1.5-0.4,2.4-0.4c0.9,0,1.7,0.1,2.4,0.4c0.2,0.1,0.4,0.2,0.6,0.3v-8
		C154,14,152.4,14.3,151.5,14.6"/>
	<rect x="139.4" y="12.8" class="st4" width="10.1" height="1.8"/>
	
		<rect x="150.5" y="19" transform="matrix(-1.836970e-16 1 -1 -1.836970e-16 176.9668 -137.0655)" class="st4" width="13.1" height="1.8"/>
	
		<rect x="141.9" y="32.4" transform="matrix(-1.836970e-16 1 -1 -1.836970e-16 181.745 -115.0686)" class="st4" width="13.1" height="1.8"/>
</g>
<g>
	<g>
		<g>
			<defs>
				<rect id="SVGID_5_" x="170.5" y="14.9" width="25.8" height="24.8"/>
			</defs>
			<clipPath id="SVGID_6_">
				<use xlink:href="#SVGID_5_"  style="overflow:visible;"/>
			</clipPath>
			<path class="st5" d="M179.1,14.9v12.8c0,0.8,0.1,1.4,0.2,2.1c0.1,0.6,0.3,1.2,0.6,1.7c0.3,0.5,0.8,0.8,1.3,1.1
				c0.6,0.3,1.3,0.4,2.2,0.4c0.9,0,1.6-0.1,2.2-0.4c0.6-0.3,1-0.6,1.3-1.1c0.3-0.5,0.5-1,0.6-1.7c0.1-0.6,0.2-1.3,0.2-2.1V14.9h8.6
				v14.5c0,2-0.3,3.6-1,4.9c-0.7,1.3-1.6,2.4-2.7,3.2c-1.2,0.8-2.5,1.4-4.1,1.7c-1.6,0.3-3.3,0.5-5.1,0.5c-1.8,0-3.5-0.2-5.1-0.5
				c-1.6-0.3-2.9-0.9-4.1-1.7c-1.2-0.8-2.1-1.9-2.7-3.2c-0.7-1.3-1-3-1-4.9V14.9H179.1L179.1,14.9z"/>
		</g>
		<path class="st1" d="M219.2,36.2L219.2,36.2c-0.9,1.2-1.9,2.1-3.3,2.6c-1.4,0.6-2.7,0.8-4.2,0.8c-1.8,0-3.4-0.3-4.9-1
			c-1.5-0.7-2.8-1.6-3.9-2.8c-1.1-1.2-1.9-2.5-2.5-4.1c-0.6-1.6-0.9-3.2-0.9-4.9c0-1.7,0.3-3.3,0.9-4.9c0.6-1.5,1.4-2.9,2.5-4.1
			c1.1-1.2,2.3-2.1,3.8-2.8c1.5-0.7,3.1-1,4.9-1c1.4,0,2.8,0.3,4.1,0.8c1.3,0.5,2.5,1.3,3.4,2.4V0h8.6v39h-8.6L219.2,36.2
			L219.2,36.2z M214.1,21.3c-0.9,0-1.6,0.1-2.3,0.4c-0.7,0.3-1.2,0.7-1.7,1.2c-0.5,0.5-0.8,1.1-1.1,1.7c-0.3,0.7-0.4,1.4-0.4,2.1
			c0,1.5,0.5,2.8,1.4,3.8c1,1,2.3,1.5,4.1,1.5c1.7,0,3.1-0.5,4.1-1.5c1-1,1.4-2.3,1.4-3.8c0-0.8-0.1-1.5-0.4-2.1
			c-0.2-0.6-0.6-1.2-1.1-1.7c-0.5-0.5-1-0.9-1.7-1.2C215.8,21.4,215,21.3,214.1,21.3"/>
		<path class="st1" d="M249.7,36.2L249.7,36.2c-0.9,1.2-1.9,2.1-3.3,2.6c-1.4,0.6-2.7,0.8-4.2,0.8c-1.8,0-3.4-0.3-4.9-1
			c-1.5-0.7-2.8-1.6-3.9-2.8c-1.1-1.2-1.9-2.5-2.5-4.1c-0.6-1.6-0.9-3.2-0.9-4.9c0-1.7,0.3-3.3,0.9-4.9c0.6-1.5,1.4-2.9,2.5-4.1
			c1.1-1.2,2.3-2.1,3.8-2.8c1.5-0.7,3.1-1,4.9-1c1.4,0,2.8,0.3,4.1,0.8c1.3,0.5,2.5,1.3,3.4,2.4V0h8.6v39h-8.6V36.2z M244.8,21.3
			c-0.9,0-1.6,0.1-2.3,0.4c-0.7,0.3-1.2,0.7-1.7,1.2c-0.5,0.5-0.8,1.1-1.1,1.7c-0.3,0.7-0.4,1.4-0.4,2.1c0,1.5,0.5,2.8,1.4,3.8
			c1,1,2.3,1.5,4.1,1.5c1.7,0,3.1-0.5,4.1-1.5c1-1,1.4-2.3,1.4-3.8c0-0.8-0.1-1.5-0.4-2.1c-0.2-0.6-0.6-1.2-1.1-1.7
			c-0.5-0.5-1-0.9-1.7-1.2C246.4,21.4,245.6,21.3,244.8,21.3"/>
		<g>
			<defs>
				<rect id="SVGID_7_" x="260.2" y="14.3" width="32.4" height="36.2"/>
			</defs>
			<clipPath id="SVGID_8_">
				<use xlink:href="#SVGID_7_"  style="overflow:visible;"/>
			</clipPath>
			<polygon class="st6" points="282.8,14.3 276.5,26.7 270,14.3 260.2,14.3 271.8,35.2 263.6,50.5 273.2,50.5 292.5,14.3 			"/>
		</g>
		<path class="st1" d="M139.5,0.3h8.6V17c0.9-1.1,2.1-1.9,3.4-2.4c2-0.8,4.7-0.6,4.7-0.6s2.3,0,4.3,0.8s3.1,1.9,4.2,3.2
			c1,1.3,1.7,2.6,2.2,4.1c0.5,1.6,0.8,3.2,0.8,5c0,1.7-0.3,3.4-0.9,4.9c-0.6,1.5-1.4,2.9-2.5,4.1c-1.1,1.2-2.3,2.1-3.8,2.8
			c-1.5,0.7-3.1,1-4.9,1c-1.4,0-3.3-0.3-4.7-0.8c-1.3-0.6-3.2-2.6-3.2-2.6h-0.1v2.3l-8,0V0.3z M157.1,30.5L157.1,30.5
			c-1,1.1-2.3,1.6-4.1,1.6c-1.7,0-3.1-0.5-4.1-1.5c-0.7-0.8-1.2-1.7-1.3-2.7c-0.1-0.4-0.2-0.7-0.2-1.1c0-0.8,0.1-1.4,0.4-2.1
			c0.2-0.6,0.7-1.3,1.2-1.8c0.5-0.5,1-0.9,1.7-1.2c0.7-0.3,1.4-0.4,2.3-0.4c2,0,3.1,0.8,3.1,0.8s1.4,0.8,2,2.6
			c0.2,0.7,0.4,1.4,0.4,2.1C158.5,28.2,158.1,29.5,157.1,30.5"/>
	</g>
	<path class="st3" d="M0,0.3h8.6v17.2c0.9-1.1,2-1.8,3.3-2.4c1.3-0.5,2.7-0.8,4.1-0.8c1.8,0,3.4,0.3,4.9,1c1.5,0.7,2.7,1.6,3.8,2.8
		c1,1.2,1.9,2.5,2.5,4.1c0.6,1.5,0.9,3.2,0.9,4.9c0,1.7-0.3,3.4-0.9,4.9c-0.6,1.5-1.4,2.9-2.5,4.1c-1.1,1.2-2.3,2.1-3.8,2.8
		c-1.5,0.7-3.1,1-4.9,1c-1.4,0-2.8-0.3-4.1-0.8c-1.3-0.6-2.4-1.4-3.2-2.6H8.6v2.9H0V0.3z M13.7,21.5c-0.9,0-1.6,0.1-2.3,0.4
		c-0.7,0.3-1.2,0.7-1.7,1.2c-0.5,0.5-0.8,1.1-1.1,1.7c-0.3,0.7-0.4,1.4-0.4,2.1c0,1.5,0.5,2.8,1.4,3.8c1,1,2.3,1.5,4.1,1.5
		c1.7,0,3.1-0.5,4.1-1.5c1-1,1.4-2.3,1.4-3.8c0-0.8-0.1-1.5-0.4-2.1c-0.2-0.6-0.6-1.2-1.1-1.7c-0.5-0.5-1-0.9-1.7-1.2
		C15.4,21.7,14.6,21.5,13.7,21.5 M44.3,14.1c1.9,0,3.8,0.3,5.5,0.8c1.7,0.6,3.3,1.4,4.6,2.5c1.3,1.1,2.4,2.4,3.2,4
		c0.8,1.6,1.2,3.4,1.2,5.5c0,2-0.4,3.8-1.2,5.4c-0.8,1.6-1.8,2.9-3.2,4c-1.3,1.1-2.9,1.9-4.6,2.5c-1.7,0.6-3.6,0.8-5.5,0.8
		c-1.9,0-3.8-0.3-5.5-0.8c-1.7-0.6-3.3-1.4-4.6-2.5c-1.3-1.1-2.4-2.4-3.2-4c-0.8-1.6-1.2-3.4-1.2-5.5c0-2.1,0.4-3.9,1.2-5.5
		c0.8-1.6,1.8-2.9,3.2-4c1.3-1.1,2.9-1.9,4.6-2.5C40.5,14.4,42.3,14.1,44.3,14.1 M44.3,21.5c-0.9,0-1.6,0.1-2.3,0.4
		c-0.7,0.3-1.2,0.7-1.7,1.2c-0.5,0.5-0.8,1.1-1.1,1.7c-0.3,0.7-0.4,1.4-0.4,2.1c0,1.5,0.5,2.8,1.4,3.8c1,1,2.3,1.5,4.1,1.5
		c1.7,0,3.1-0.5,4.1-1.5c1-1,1.4-2.3,1.4-3.8c0-0.8-0.1-1.5-0.4-2.1c-0.2-0.6-0.6-1.2-1.1-1.7c-0.5-0.5-1-0.9-1.7-1.2
		C45.9,21.7,45.1,21.5,44.3,21.5 M69.4,18.6L69.4,18.6c0.9-1.4,2-2.4,3.4-3.1c1.4-0.6,2.9-0.9,4.7-0.9h1.7v7.7
		c-0.6-0.3-1.2-0.5-1.8-0.6c-0.6-0.1-1.3-0.1-1.9-0.1c-1.2,0-2.2,0.2-3,0.5c-0.8,0.4-1.4,0.8-1.9,1.4c-0.4,0.6-0.8,1.3-0.9,2.2
		c-0.2,0.8-0.3,1.7-0.3,2.7v10.3h-8V14.6h8L69.4,18.6L69.4,18.6z M99.3,36.4L99.3,36.4c-0.9,1.2-1.9,2.1-3.3,2.6
		c-1.4,0.6-2.7,0.8-4.2,0.8c-1.8,0-3.4-0.3-4.9-1c-1.5-0.7-2.8-1.6-3.9-2.8c-1.1-1.2-1.9-2.5-2.5-4.1c-0.6-1.6-0.9-3.2-0.9-4.9
		c0-1.7,0.3-3.3,0.9-4.9c0.6-1.5,1.4-2.9,2.5-4.1c1.1-1.2,2.3-2.1,3.8-2.8c1.5-0.7,3.1-1,4.9-1c1.4,0,2.8,0.3,4.1,0.8
		c1.3,0.5,2.5,1.3,3.4,2.4V0.3h8.6v39h-8.6L99.3,36.4L99.3,36.4z M94.2,21.5c-0.9,0-1.6,0.1-2.3,0.4c-0.7,0.3-1.2,0.7-1.7,1.2
		c-0.5,0.5-0.8,1.1-1.1,1.7c-0.3,0.7-0.4,1.4-0.4,2.1c0,1.5,0.5,2.8,1.4,3.8c1,1,2.3,1.5,4.1,1.5c1.8,0,3.1-0.5,4.1-1.5
		c1-1,1.4-2.3,1.4-3.8c0-0.8-0.1-1.5-0.4-2.1c-0.2-0.6-0.6-1.2-1.1-1.7c-0.5-0.5-1-0.9-1.7-1.2C95.8,21.7,95,21.5,94.2,21.5
		 M137.2,28.4H119c0,1.7,0.4,3.1,1.3,4c0.9,0.9,2.2,1.4,4,1.4c0.9,0,1.7-0.2,2.4-0.5c0.7-0.3,1.2-0.9,1.7-2h8.2
		c-0.3,1.7-0.9,2.9-1.7,3.9c-0.8,1-1.8,1.9-2.9,2.6c-1.1,0.7-2.4,1.2-3.6,1.5c-1.3,0.3-2.7,0.5-4,0.5c-2,0-3.9-0.3-5.6-0.8
		c-1.7-0.6-3.2-1.4-4.4-2.5c-1.2-1.1-2.2-2.4-2.9-4c-0.7-1.6-1.1-3.4-1.1-5.5c0-2,0.3-3.8,1-5.4c0.7-1.6,1.6-2.9,2.7-4
		c1.2-1.1,2.6-1.9,4.2-2.5c1.6-0.6,3.4-0.9,5.4-0.9c2.1,0,4,0.3,5.6,0.9c1.6,0.6,3,1.5,4.1,2.7c1.1,1.2,2,2.6,2.6,4.2
		c0.6,1.6,0.9,3.5,1.2,5.6V28.4z M129,23.2c-0.3-1.3-1-2.4-2.2-3.1c-0.8-0.5-1.8-0.7-2.8-0.7c-1.2,0-2.2,0.4-3.1,1
		c-0.9,0.6-1.5,1.6-1.8,2.8L129,23.2L129,23.2z M151.5,14.6c-0.9,0.3-2.5,1.3-3.4,2.4v-2.4h-8.6v24.1h8v-12c0-0.8,0.1-1.5,0.4-2.1
		c0.2-0.6,0.6-1.2,1.1-1.7c0.5-0.5,1.1-0.9,1.8-1.2c0.7-0.3,1.5-0.4,2.4-0.4c0.9,0,1.7,0.1,2.4,0.4c0.2,0.1,0.4,0.2,0.6,0.3v-8
		C154,14,152.4,14.3,151.5,14.6"/>
	<rect x="139.4" y="12.8" class="st4" width="10.1" height="1.8"/>
	
		<rect x="150.5" y="19" transform="matrix(-1.836970e-16 1 -1 -1.836970e-16 176.9668 -137.0655)" class="st4" width="13.1" height="1.8"/>
	
		<rect x="141.9" y="32.4" transform="matrix(-1.836970e-16 1 -1 -1.836970e-16 181.745 -115.0686)" class="st4" width="13.1" height="1.8"/>
</g>
</svg>
